<svg width="180" height="180" viewBox="0 0 180 180" fill="none" xmlns="http://www.w3.org/2000/svg">
<rect x="0.5" y="0.5" width="179" height="179" rx="89.5" fill="#0A295B"/>
<g clip-path="url(#clip0_426_80)">
<g clip-path="url(#clip1_426_80)">
<path d="M71.3571 69.0268V61.259C71.3571 59.9773 72.4058 58.9286 73.6875 58.9286H81.4554C82.7371 58.9286 83.7857 59.9773 83.7857 61.259V69.0268C83.7857 70.3085 82.7371 71.3572 81.4554 71.3572H73.6875C72.4058 71.3572 71.3571 70.3085 71.3571 69.0268ZM98.5446 71.3572H106.312C107.594 71.3572 108.643 70.3085 108.643 69.0268V61.259C108.643 59.9773 107.594 58.9286 106.312 58.9286H98.5446C97.2629 58.9286 96.2143 59.9773 96.2143 61.259V69.0268C96.2143 70.3085 97.2629 71.3572 98.5446 71.3572ZM73.6875 90.0001H81.4554C82.7371 90.0001 83.7857 88.9514 83.7857 87.6697V79.9018C83.7857 78.6201 82.7371 77.5715 81.4554 77.5715H73.6875C72.4058 77.5715 71.3571 78.6201 71.3571 79.9018V87.6697C71.3571 88.9514 72.4058 90.0001 73.6875 90.0001ZM98.5446 90.0001H106.312C107.594 90.0001 108.643 88.9514 108.643 87.6697V79.9018C108.643 78.6201 107.594 77.5715 106.312 77.5715H98.5446C97.2629 77.5715 96.2143 78.6201 96.2143 79.9018V87.6697C96.2143 88.9514 97.2629 90.0001 98.5446 90.0001ZM83.7857 106.313V98.5447C83.7857 97.263 82.7371 96.2143 81.4554 96.2143H73.6875C72.4058 96.2143 71.3571 97.263 71.3571 98.5447V106.313C71.3571 107.594 72.4058 108.643 73.6875 108.643H81.4554C82.7371 108.643 83.7857 107.594 83.7857 106.313ZM98.5446 108.643H106.312C107.594 108.643 108.643 107.594 108.643 106.313V98.5447C108.643 97.263 107.594 96.2143 106.312 96.2143H98.5446C97.2629 96.2143 96.2143 97.263 96.2143 98.5447V106.313C96.2143 107.594 97.2629 108.643 98.5446 108.643ZM133.5 132.723V139.714H46.5V132.723C46.5 131.442 47.5487 130.393 48.8304 130.393H52.6172V44.9465C52.6172 42.3637 54.6951 40.2858 57.2779 40.2858H122.722C125.305 40.2858 127.383 42.3637 127.383 44.9465V130.393H131.17C132.451 130.393 133.5 131.442 133.5 132.723ZM61.9386 130.199H83.7857V117.188C83.7857 115.906 84.8344 114.857 86.1161 114.857H93.8839C95.1656 114.857 96.2143 115.906 96.2143 117.188V130.199H118.061V49.8014L62.0357 49.6072L61.9386 130.199Z" fill="#FFC827"/>
</g>
</g>
<rect x="0.5" y="0.5" width="179" height="179" rx="89.5" stroke="#CCCCCC"/>
<defs>
<clipPath id="clip0_426_80">
<rect width="87" height="100" fill="white" transform="translate(46.5 40)"/>
</clipPath>
<clipPath id="clip1_426_80">
<rect width="87" height="99.4286" fill="white" transform="translate(46.5 40.2858)"/>
</clipPath>
</defs>
</svg>
