<svg width="180" height="180" viewBox="0 0 180 180" fill="none" xmlns="http://www.w3.org/2000/svg">
<rect x="0.5" y="0.5" width="179" height="179" rx="89.5" fill="#0A295B"/>
<g clip-path="url(#clip0_426_85)">
<g clip-path="url(#clip1_426_85)">
<path d="M111.871 127.502L102.502 127.512V121.25H77.5019V127.541L68.1308 127.551C66.4081 127.553 65.0116 128.949 65.0097 130.674L64.9999 136.871C64.998 138.6 66.4003 140.002 68.1288 140L111.871 139.949C113.594 139.947 114.99 138.551 114.992 136.828L115 130.631C115.002 128.902 113.6 127.5 111.871 127.502ZM141.797 45.2227C141.285 42.209 138.631 40 135.519 40H44.4784C41.3671 40 38.7128 42.209 38.2011 45.2227C26.8515 112.102 27.5077 107.984 27.5058 108.75C27.4999 112.133 30.2968 115 33.873 115H146.127C149.687 115 152.476 112.156 152.492 108.791C152.496 107.994 153.146 112.102 141.797 45.2227ZM78.248 52.5H101.75L103.658 71.25H76.3398L78.248 52.5ZM63.5663 102.5H41.3847L45.0976 80.625H65.7948L63.5663 102.5ZM66.748 71.25H46.6874L49.8691 52.5H68.6562L66.748 71.25ZM73.1581 102.5L75.3847 80.625H104.613L106.84 102.5H73.1581ZM111.342 52.5H130.129L133.31 71.25H113.25L111.342 52.5ZM116.432 102.5L114.205 80.625H134.902L138.615 102.5H116.432Z" fill="#FFC827"/>
</g>
</g>
<rect x="0.5" y="0.5" width="179" height="179" rx="89.5" stroke="#CCCCCC"/>
<defs>
<clipPath id="clip0_426_85">
<rect width="125" height="100" fill="white" transform="translate(27.5 40)"/>
</clipPath>
<clipPath id="clip1_426_85">
<rect width="125" height="100" fill="white" transform="translate(27.5 40)"/>
</clipPath>
</defs>
</svg>
