<svg width="180" height="180" viewBox="0 0 180 180" fill="none" xmlns="http://www.w3.org/2000/svg">
<rect x="0.5" y="0.5" width="179" height="179" rx="89.5" fill="#0A295B"/>
<g clip-path="url(#clip0_426_75)">
<g clip-path="url(#clip1_426_75)">
<path d="M77.5 80.625C77.5 77.1738 74.7012 74.375 71.25 74.375H68.125C61.2207 74.375 55.625 79.9707 55.625 86.875V96.25C55.625 103.154 61.2207 108.75 68.125 108.75H71.25C74.7012 108.75 77.5 105.951 77.5 102.5V80.625ZM111.875 108.75C118.779 108.75 124.375 103.154 124.375 96.25V86.875C124.375 79.9707 118.779 74.375 111.875 74.375H108.75C105.299 74.375 102.5 77.1738 102.5 80.625V102.5C102.5 105.951 105.299 108.75 108.75 108.75H111.875ZM90 40C62.1055 40 40.8945 63.209 40 90V93.125C40 94.8516 41.3984 96.25 43.125 96.25H46.25C47.9766 96.25 49.375 94.8516 49.375 93.125V90C49.375 67.5996 67.5996 49.375 90 49.375C112.4 49.375 130.625 67.5996 130.625 90H130.602C130.617 90.4746 130.625 122.367 130.625 122.367C130.625 126.928 126.928 130.625 122.367 130.625H102.5C102.5 125.447 98.3027 121.25 93.125 121.25H86.875C81.6973 121.25 77.5 125.447 77.5 130.625C77.5 135.803 81.6973 140 86.875 140H122.367C132.105 140 140 132.105 140 122.367V90C139.105 63.209 117.895 40 90 40Z" fill="#FFC827"/>
</g>
</g>
<rect x="0.5" y="0.5" width="179" height="179" rx="89.5" stroke="#CCCCCC"/>
<defs>
<clipPath id="clip0_426_75">
<rect width="100" height="100" fill="white" transform="translate(40 40)"/>
</clipPath>
<clipPath id="clip1_426_75">
<rect width="100" height="100" fill="white" transform="translate(40 40)"/>
</clipPath>
</defs>
</svg>
