<svg id="Icon_ionic-ios-mail-unread" data-name="Icon ionic-ios-mail-unread" xmlns="http://www.w3.org/2000/svg" width="31.201" height="22.801" viewBox="0 0 31.201 22.801">
  <path id="Path_2" data-name="Path 2" d="M33.075,10.913a3.6,3.6,0,1,1-3.6-3.6A3.6,3.6,0,0,1,33.075,10.913Z" transform="translate(-1.874 -7.313)" fill="#295795"/>
  <g id="Group_1125" data-name="Group 1125" transform="translate(0 1.2)">
    <path id="Path_3" data-name="Path 3" d="M30.976,15.663a5,5,0,0,1-1.17-.143l-3.555,3.623a.145.145,0,0,0,0,.21L31.9,25.368a.973.973,0,0,1,0,1.38.978.978,0,0,1-1.38,0l-5.625-5.993a.154.154,0,0,0-.218,0L23.3,22.15A6.039,6.039,0,0,1,19,23.965,6.16,6.16,0,0,1,14.6,22.1l-1.32-1.343a.154.154,0,0,0-.218,0L7.44,26.748a.978.978,0,0,1-1.38,0,.973.973,0,0,1,0-1.38l5.648-6.015a.16.16,0,0,0,0-.21L3.63,10.922a.148.148,0,0,0-.255.105V27.475a2.407,2.407,0,0,0,2.4,2.4h26.4a2.407,2.407,0,0,0,2.4-2.4V14.125A4.976,4.976,0,0,1,30.976,15.663Z" transform="translate(-3.375 -8.275)" fill="#295795"/>
    <path id="Path_4" data-name="Path 4" d="M25.931,10.838a4.985,4.985,0,0,1,.615-2.4H5.711a2.342,2.342,0,0,0-1.485.525L15.994,20.94a4.111,4.111,0,0,0,5.865,0L27.9,14.8A4.962,4.962,0,0,1,25.931,10.838Z" transform="translate(-3.318 -8.438)" fill="#295795"/>
  </g>
</svg>
