<svg xmlns="http://www.w3.org/2000/svg" width="30.451" height="30.449" viewBox="0 0 30.451 30.449">
  <path id="Icon_ionic-ios-call" data-name="Icon ionic-ios-call" d="M34.062,28.345a25.577,25.577,0,0,0-5.343-3.575c-1.6-.769-2.188-.753-3.321.063-.943.682-1.554,1.316-2.64,1.078s-3.226-1.855-5.3-3.924-3.694-4.217-3.924-5.3.4-1.7,1.078-2.64c.816-1.134.84-1.72.063-3.321A25.071,25.071,0,0,0,11.1,5.38C9.931,4.214,9.67,4.468,9.028,4.7A11.774,11.774,0,0,0,7.133,5.7a5.715,5.715,0,0,0-2.275,2.4c-.452.975-.975,2.79,1.688,7.531a42.021,42.021,0,0,0,7.388,9.853h0l.008.008.008.008h0A42.185,42.185,0,0,0,23.8,32.895c4.74,2.664,6.556,2.14,7.531,1.688a5.618,5.618,0,0,0,2.4-2.275,11.774,11.774,0,0,0,1.007-1.895C34.973,29.772,35.235,29.51,34.062,28.345Z" transform="translate(-4.49 -4.503)" fill="#295795"/>
</svg>
